# xmcd CD database file
#
# Track frame offsets:
#	150
#	16408
#	43488
#	61512
#	84233
#	103057
#	135784
#	151272
#	169897
#	197727
#
# Disc length: 2835 seconds
#
# Revision: 0
# Processed by: cddbd v1.5.1PL2 Copyright (c) Steve Scherf et al.
# Submitted via: CDex 1.51
#
DISCID=750b110a
DTITLE=Gerry Lockran - Rally round the flag
DYEAR=1976
DGENRE=Blues
TTITLE0=Glory of love
TTITLE1=Very goog friend of mine
TTITLE2=Cuckoo
TTITLE3=The lifeline
TTITLE4=Wanderin'
TTITLE5=Rally round the flag
TTITLE6=Summertime
TTITLE7=I may not have ...
TTITLE8=Frankie and Johnny
TTITLE9=See see rider
EXTD=YEAR: 1976
EXTT0=
EXTT1=
EXTT2=
EXTT3=
EXTT4=
EXTT5=
EXTT6=
EXTT7=
EXTT8=
EXTT9=
PLAYORDER=
